<svg width="30" height="34" viewBox="0 0 30 34" fill="none" xmlns="http://www.w3.org/2000/svg">
<path d="M5.5 10.8493L12 9.33151L14.5 11.8611L17.5 9.33151L23.5 10.8493L24 16.9203L21 22.9914L15 27.0387L9.5 22.9914L5 17.4262L5.5 10.8493Z" fill="#B63127"/>
<path fill-rule="evenodd" clip-rule="evenodd" d="M4.24707 14.5639C4.24707 10.8796 7.09131 8.04272 10.4298 8.04272C12.1508 8.04272 13.6651 8.95973 14.7517 10.1463C15.8384 8.95973 17.3527 8.04272 19.0737 8.04272C22.4122 8.04272 25.2564 10.8795 25.2564 14.5639C25.2564 17.0877 24.3093 19.3071 22.9972 21.1832C21.6874 23.056 19.974 24.6455 18.3335 25.9371C17.7069 26.4304 17.073 26.8854 16.4928 27.2212C15.9481 27.5365 15.3217 27.8253 14.7517 27.8253C14.1818 27.8253 13.5554 27.5365 13.0106 27.2212C12.4305 26.8854 11.7966 26.4304 11.17 25.9371C9.52948 24.6455 7.8161 23.056 6.50626 21.1832C5.19415 19.3071 4.24707 17.0877 4.24707 14.5639ZM10.4298 10.0892C7.93361 10.0892 6.04787 12.1754 6.04787 14.5639C6.04787 16.4787 6.76313 18.2615 7.91601 19.9098C9.07115 21.5615 10.6254 23.0187 12.1955 24.2548C12.7896 24.7226 13.3492 25.1206 13.8279 25.3976C14.3419 25.6951 14.6397 25.7788 14.7517 25.7788C14.8638 25.7788 15.1615 25.6951 15.6756 25.3976C16.1543 25.1206 16.7139 24.7226 17.308 24.2548C18.8781 23.0187 20.4323 21.5615 21.5875 19.9098C22.7403 18.2615 23.4556 16.4787 23.4556 14.5639C23.4556 12.1754 21.5699 10.0892 19.0737 10.0892C17.64 10.0892 16.3014 11.0625 15.4655 12.2979C15.2951 12.5498 15.0314 12.6975 14.7517 12.6975C14.4721 12.6975 14.2084 12.5498 14.0379 12.2979C13.2021 11.0625 11.8634 10.0892 10.4298 10.0892Z" fill="#B63127"/>
</svg>
